<svg id="Call_center" data-name="Call center" xmlns="http://www.w3.org/2000/svg" viewBox="0 0 41.04 48.81">
  <defs>
    <style>
      .cls-1 {
        fill: #fff;
      }

      .cls-2 {
        fill: #231f20;
      }
    </style>
  </defs>
  <title>royal-car-rental-group-call-center</title>
  <g>
    <g>
      <path d="M44.62,49.41a1.18,1.18,0,0,1-.51-.9c-.26-2.31-.53-4.61-.82-6.92A19.79,19.79,0,0,0,42.91,39a4.57,4.57,0,0,0-3.14-3.34c-1.66-.54-3.36-1-5.07-1.45l-.3.43L30.5,40.5c-.45.68-.85.74-1.47.22L26,38.16c0,.2,0,.34,0,.47,0,1.5,0,3,0,4.51,0,.6-.28.94-.75.95s-.76-.35-.76-.94c0-1.63,0-3.26,0-5l-.41.31-2.77,2.3a.79.79,0,0,1-1.34-.19q-2-3-4-6a.49.49,0,0,0-.65-.25c-1.44.42-2.88.82-4.32,1.22A5,5,0,0,0,7.2,40c-.31,2.84-.66,5.68-1,8.51a2.77,2.77,0,0,1-.47.86H5.13a1.07,1.07,0,0,1-.46-1.14c.36-2.92.64-5.84,1.06-8.75a6.2,6.2,0,0,1,4.64-5.38c3-.9,6.07-1.72,9.11-2.58l.37-.13c0-1.12,0-2.23,0-3.33a.88.88,0,0,0-.33-.52,10.57,10.57,0,0,1-2.58-3.13c-.37-.72-.61-1.51-1-2.38H13.14a2.4,2.4,0,0,1-2.41-2.41c0-.92,0-1.84,0-2.75a2.2,2.2,0,0,1,1-1.91.78.78,0,0,0,.37-.82A14.76,14.76,0,0,1,13,7.67,10.25,10.25,0,0,1,20.66,1.3c.95-.23,1.92-.33,2.88-.49h3.23c.82.13,1.65.23,2.47.39a10.54,10.54,0,0,1,8.81,9.29,34.74,34.74,0,0,1,.19,3.83.65.65,0,0,0,.3.61,2.31,2.31,0,0,1,1,2c0,.9,0,1.8,0,2.71a2.4,2.4,0,0,1-2.41,2.41H34.23a9.51,9.51,0,0,1-3.46,5.54.8.8,0,0,0-.31.69c0,1,0,2.09,0,3.15l4.43,1.25,5,1.42a6.46,6.46,0,0,1,4.72,5.63c.32,2.83.67,5.65,1,8.47a1.09,1.09,0,0,1-.45,1.19ZM32.55,22.5c-.88.33-1.65.62-2.44.9a.54.54,0,0,0-.42.52,2.25,2.25,0,0,1-2.78,1.89,2.26,2.26,0,0,1-.56-4.19,2.19,2.19,0,0,1,2.56.27.53.53,0,0,0,.63.1q1.43-.56,2.88-1.08a.43.43,0,0,0,.34-.48c0-1.72,0-3.45,0-5.17a6,6,0,0,0-.55-2.08,1.65,1.65,0,0,0-1.83-1,8.29,8.29,0,0,0-2.27.59,6.45,6.45,0,0,1-5.84,0,7.11,7.11,0,0,0-1.61-.53A2.2,2.2,0,0,0,17.76,14a6.3,6.3,0,0,0-.19,1.45c0,1.79,0,3.58,0,5.36a5.77,5.77,0,0,0,1.09,3.51A12.64,12.64,0,0,0,24,28.61a2.84,2.84,0,0,0,2.42,0,13.05,13.05,0,0,0,4.49-3.26A7.27,7.27,0,0,0,32.55,22.5Zm1.3-9.64.1,0c-.14-.73-.25-1.48-.44-2.2A7.18,7.18,0,0,0,28.21,5a12.82,12.82,0,0,0-6.38,0,6.93,6.93,0,0,0-5,4.25,12.67,12.67,0,0,0-.9,3.85c0,.46-.07.92-.1,1.38l.19,0c.07-.25.14-.49.2-.74a3.68,3.68,0,0,1,3.62-3.14,7.05,7.05,0,0,1,3.1.78,4.81,4.81,0,0,0,4.42,0,9.52,9.52,0,0,1,2-.67,3.69,3.69,0,0,1,4.39,2A.73.73,0,0,0,33.85,12.86Zm-19.66,1.6c.25-1.5.39-3,.74-4.38a8.39,8.39,0,0,1,6.28-6.55,14.9,14.9,0,0,1,7-.1,8.22,8.22,0,0,1,5.87,4.45,13.24,13.24,0,0,1,1.28,4.53c.08.68.12,1.37.18,2H36.7a4.11,4.11,0,0,0,0-.53,30.18,30.18,0,0,0-.2-3.26A8.87,8.87,0,0,0,30,3a17.3,17.3,0,0,0-9-.18,8.84,8.84,0,0,0-6,4.34,11.72,11.72,0,0,0-1.37,5.26c0,.67,0,1.35,0,2ZM29,28.93c-2.57,1.92-5.06,1.82-7.6,0,0,.3,0,.48,0,.66a5.5,5.5,0,0,0,.06,2c.25.58.89,1,1.37,1.48l2.37,2.38,3.67-3.7a.46.46,0,0,0,.11-.29C29,30.65,29,29.87,29,28.93Zm.6,10.23,3.57-5.36-3.06-.86a.4.4,0,0,0-.33.08c-1.15,1.13-2.28,2.27-3.45,3.42ZM17.2,33.8l3.57,5.36L24,36.45c-1.16-1.16-2.28-2.28-3.4-3.38a.45.45,0,0,0-.36-.11C19.26,33.22,18.27,33.5,17.2,33.8ZM16,16c-1,0-1.94,0-2.9,0a.89.89,0,0,0-.87.94q0,1.33,0,2.65a.88.88,0,0,0,.83.93c1,0,1.95,0,2.94,0Zm18.27,4.55h2.61a2.23,2.23,0,0,0,.33,0,.93.93,0,0,0,.83-1c0-.85,0-1.7,0-2.56a.93.93,0,0,0-1-1c-.71,0-1.42,0-2.13,0h-.63Zm-6.84,2.28a.76.76,0,1,0,.74.77A.79.79,0,0,0,27.45,22.84Z" transform="translate(-4.66 -0.81)"/>
      <path d="M24.88,49.41a1.07,1.07,0,0,1-.48-1c0-.64,0-1.29,0-1.94a.76.76,0,1,1,1.51,0c0,.65,0,1.29,0,1.94a1.07,1.07,0,0,1-.48,1Z" transform="translate(-4.66 -0.81)"/>
      <path class="cls-1" d="M27.45,22.84a.76.76,0,1,1-.77.74A.79.79,0,0,1,27.45,22.84Z" transform="translate(-4.66 -0.81)"/>
    </g>
    <g>
      <line class="cls-2" x1="0.95" y1="48.06" x2="40.32" y2="48.06"/>
      <path class="cls-2" d="M5.61,49.62H45a.75.75,0,0,0,0-1.5H5.61a.75.75,0,0,0,0,1.5Z" transform="translate(-4.66 -0.81)"/>
    </g>
  </g>
</svg>

