<svg id="CEO_office" data-name="CEO office" xmlns="http://www.w3.org/2000/svg" viewBox="0 0 50.48 50.49">
  <defs>
    <style>
      .cls-1 {
        fill: #fff;
      }
    </style>
  </defs>
  <title>royal-car-rental-group-ceo-office</title>
  <g>
    <path class="cls-1" d="M-.15,50.35V-.14H50.33V50.35ZM2.22,36.94H1.79c-1,0-1.15.2-1.15,1.15q0,5.23,0,10.45c0,.76.25,1,1,1H48.57c.72,0,1-.26,1-1q0-5.35,0-10.7c0-.68-.27-.95-1-1H41.67v-.63q0-13.41,0-26.82a3.92,3.92,0,0,0-4.12-4.11H33c0-.12-.08-.22-.09-.31a4.5,4.5,0,0,0-2.48-3.24,12.1,12.1,0,0,0-7.67-1,10.48,10.48,0,0,0-2.26.66,4.72,4.72,0,0,0-3.3,3.9H12.7A3.93,3.93,0,0,0,8.53,9.53q0,9.52,0,19v.56c-.31,0-.56-.08-.8-.08H4.58a2.33,2.33,0,0,0-2.36,2.38c0,1.12,0,2.24,0,3.35C2.22,35.49,2.22,36.19,2.22,36.94Z" transform="translate(0.15 0.14)"/>
    <path d="M2.22,36.94c0-.75,0-1.45,0-2.15,0-1.12,0-2.24,0-3.35A2.33,2.33,0,0,1,4.58,29H7.73c.24,0,.49,0,.8.08v-.56q0-9.52,0-19A3.93,3.93,0,0,1,12.7,5.37h4.51a4.72,4.72,0,0,1,3.3-3.9A10.48,10.48,0,0,1,22.77.81a12.1,12.1,0,0,1,7.67,1,4.5,4.5,0,0,1,2.48,3.24c0,.1.06.19.09.31h4.53a3.92,3.92,0,0,1,4.12,4.11q0,13.41,0,26.82v.63H48.6c.69,0,1,.27,1,1q0,5.35,0,10.7c0,.71-.26,1-1,1H1.63c-.74,0-1-.26-1-1q0-5.23,0-10.45c0-1,.19-1.14,1.15-1.15ZM48,41.7H2.25V48H48Zm-34.7-4.8h11V33.78H18.12c-.54,0-.89-.25-.9-.7,0-1.59,0-3.18,0-4.79H18.8v3.88h4.41c-.64-.62-1.2-1.15-1.74-1.69a.79.79,0,0,1,0-1.29c.42-.44.86-.86,1.29-1.29.6-.6.94-.61,1.54,0,1.6,1.6,3.2,3.21,4.82,4.81a1.63,1.63,0,0,0,.61.38,2.37,2.37,0,0,1,1.7,2.33c0,.5,0,1,0,1.5h5.5a1.7,1.7,0,0,0,0-.21c0-3.55,0-7.1,0-10.65A2.32,2.32,0,0,0,35,23.74q-1.92-.45-3.84-.83a.7.7,0,0,0-.54.16c-.83.8-1.63,1.62-2.45,2.43-.58.57-1,.54-1.5-.11L25.1,23.28l-1.6,2.13c-.47.62-.92.66-1.47.11-.78-.78-1.57-1.54-2.33-2.34a.81.81,0,0,0-.9-.25c-1.14.28-2.3.53-3.45.78a2.39,2.39,0,0,0-2.08,2.57q0,3.55,0,7.1C13.26,34.54,13.26,35.7,13.26,36.9ZM29.93,7.82a3.86,3.86,0,0,0-2.5,1.79c-.44.68-1,.68-1.5,0s-.87-1.19-1.33-1.77a2.19,2.19,0,0,0-3-.51,9.75,9.75,0,0,0-.93.64.7.7,0,0,0-.26.46c0,1.3,0,2.59,0,3.89A6.64,6.64,0,0,0,22,16.55a4.09,4.09,0,0,0,5.74.49,5.16,5.16,0,0,0,1.89-3.36C29.83,11.77,29.83,9.83,29.93,7.82ZM11.69,36.92c0-.22,0-.4,0-.58q0-5.18,0-10.35a3.89,3.89,0,0,1,2.88-3.74c.44-.12.89-.21,1.34-.3a16.17,16.17,0,0,0,5.65-1.89c.15-.09.36-.24.37-.38.06-.56.13-1.13-.52-1.48a2.17,2.17,0,0,1-.66-.65A.82.82,0,0,0,20,17.2H10.13V36.92ZM40.07,17.21h-.58c-2.91,0-5.82,0-8.72,0-.65,0-1.22,0-1.6.66a2,2,0,0,1-.47.43,1.44,1.44,0,0,0-.45,1.46.32.32,0,0,0,.14.18,25.17,25.17,0,0,0,3,1.31c1.28.4,2.61.61,3.93.9a3.93,3.93,0,0,1,3.23,4q0,5.1,0,10.2v.54h1.56ZM48,38.55H2.25v1.52H48ZM30.71,15.6h9.37c0-2.19.05-4.36,0-6.52A2.24,2.24,0,0,0,37.8,7c-1.54,0-3.09,0-4.63,0a.45.45,0,0,0-.35.22c-.16.7-.29,1.4-.42,2.11l.37.11A2.36,2.36,0,0,1,32.12,14h-.89ZM17.8,9.28c-.13-.67-.28-1.31-.38-2,0-.32-.19-.39-.49-.39-1.4,0-2.79,0-4.19,0a2.41,2.41,0,0,0-2.64,2.62q0,2.79,0,5.57v.45h9.38L19,14.2a12.51,12.51,0,0,1-2.2-.49,2,2,0,0,1-1.17-1.77Q15.45,10,17.8,9.28ZM31.27,6.44a2.59,2.59,0,0,0-1.21-3A8.2,8.2,0,0,0,26.4,2.26a10.3,10.3,0,0,0-5.8.92,2.88,2.88,0,0,0-1.54,3.94l1.6-1.06A3.74,3.74,0,0,1,25.9,7l.76,1a5.17,5.17,0,0,1,2.68-1.64A2.08,2.08,0,0,1,31.27,6.44ZM8.53,36.92c0-1.86,0-3.67,0-5.47,0-.53-.35-.82-.91-.82H4.8c-.72,0-1,.29-1,1,0,1.35,0,2.7,0,4,0,.41,0,.81,0,1.23Zm17.38,0h3.92c0-.53,0-1,0-1.51a.74.74,0,0,0-.71-.8c-1.06,0-2.12,0-3.21,0Zm-3.24-13L24,22.14c-.39-.26-.72-.5-1.07-.7a.5.5,0,0,0-.4,0c-.51.24-1,.5-1.5.75Zm3.6-1.68,1.22,1.62,1.66-1.66c-1.49-.95-1.58-.95-2.81,0ZM23,29.79c.86.86,1.65,1.63,2.41,2.42a7.21,7.21,0,0,1,.56.74h1l-3.49-3.48-.08,0Zm.54-10.31c-.08.42-.11.49.3.66s.84,1.08,1.52.63c.5-.33,1.36-.43,1.31-1.28Zm-4.77-7V10.93c-1.05-.11-1.54.12-1.58.71S17.66,12.51,18.79,12.46Zm12.65,0c.52,0,1.1.16,1.4-.39a1,1,0,0,0,0-.81c-.31-.54-.88-.36-1.4-.37Z" transform="translate(0.15 0.14)"/>
    <path class="cls-1" d="M48,41.7V48H2.25V41.7Z" transform="translate(0.15 0.14)"/>
    <path class="cls-1" d="M13.26,36.9c0-1.2,0-2.36,0-3.53q0-3.55,0-7.1a2.39,2.39,0,0,1,2.08-2.57c1.15-.25,2.31-.5,3.45-.78a.81.81,0,0,1,.9.25c.76.8,1.55,1.57,2.33,2.34.55.54,1,.51,1.47-.11l1.6-2.13,1.59,2.11c.49.65.93.68,1.5.11.82-.81,1.62-1.63,2.45-2.43a.7.7,0,0,1,.54-.16q1.93.39,3.84.83a2.32,2.32,0,0,1,1.91,2.32c0,3.55,0,7.1,0,10.65a1.7,1.7,0,0,1,0,.21h-5.5c0-.5,0-1,0-1.5a2.37,2.37,0,0,0-1.7-2.33,1.63,1.63,0,0,1-.61-.38c-1.61-1.6-3.21-3.2-4.82-4.81-.6-.6-.93-.59-1.54,0-.43.43-.87.85-1.29,1.29a.79.79,0,0,0,0,1.29c.54.54,1.1,1.07,1.74,1.69H18.8V28.29H17.21c0,1.61,0,3.2,0,4.79,0,.45.36.7.9.7h6.15V36.9ZM33,33V28.29H31.45V33Z" transform="translate(0.15 0.14)"/>
    <path class="cls-1" d="M29.93,7.82c-.1,2-.1,3.94-.32,5.86A5.16,5.16,0,0,1,27.72,17,4.09,4.09,0,0,1,22,16.55a6.64,6.64,0,0,1-1.6-4.19c0-1.3,0-2.59,0-3.89A.7.7,0,0,1,20.63,8a9.75,9.75,0,0,1,.93-.64,2.19,2.19,0,0,1,3,.51c.46.58.88,1.18,1.33,1.77s1.06.64,1.5,0A3.86,3.86,0,0,1,29.93,7.82Z" transform="translate(0.15 0.14)"/>
    <path class="cls-1" d="M11.69,36.92H10.13V17.21H20a.82.82,0,0,1,.75.34,2.17,2.17,0,0,0,.66.65c.65.35.58.92.52,1.48,0,.14-.22.29-.37.38a16.17,16.17,0,0,1-5.65,1.89c-.45.09-.9.18-1.34.3A3.89,3.89,0,0,0,11.69,26q0,5.18,0,10.35C11.69,36.52,11.69,36.69,11.69,36.92Z" transform="translate(0.15 0.14)"/>
    <path class="cls-1" d="M40.07,17.21v19.7H38.51v-.54q0-5.1,0-10.2a3.93,3.93,0,0,0-3.23-4c-1.31-.29-2.65-.5-3.93-.9a25.17,25.17,0,0,1-3-1.31.32.32,0,0,1-.14-.18,1.44,1.44,0,0,1,.45-1.46,2,2,0,0,0,.47-.43c.37-.64.94-.67,1.6-.66,2.91,0,5.82,0,8.72,0Z" transform="translate(0.15 0.14)"/>
    <path class="cls-1" d="M48,38.55v1.52H2.25V38.55Z" transform="translate(0.15 0.14)"/>
    <path class="cls-1" d="M30.71,15.6,31.23,14h.89a2.36,2.36,0,0,0,.64-4.65l-.37-.11c.14-.7.26-1.41.42-2.11A.45.45,0,0,1,33.17,7c1.54,0,3.09,0,4.63,0a2.24,2.24,0,0,1,2.26,2.13c.08,2.16,0,4.33,0,6.52Z" transform="translate(0.15 0.14)"/>
    <path class="cls-1" d="M17.8,9.28q-2.36.7-2.16,2.66a2,2,0,0,0,1.17,1.77,12.51,12.51,0,0,0,2.2.49l.47,1.4H10.1v-.45q0-2.79,0-5.57a2.41,2.41,0,0,1,2.64-2.62c1.4,0,2.79,0,4.19,0,.29,0,.44.06.49.39C17.52,8,17.67,8.61,17.8,9.28Z" transform="translate(0.15 0.14)"/>
    <path class="cls-1" d="M31.27,6.44a2.08,2.08,0,0,0-1.93-.12A5.17,5.17,0,0,0,26.66,8L25.9,7a3.74,3.74,0,0,0-5.24-.9l-1.6,1.06A2.88,2.88,0,0,1,20.6,3.19a10.3,10.3,0,0,1,5.8-.92,8.2,8.2,0,0,1,3.66,1.18A2.59,2.59,0,0,1,31.27,6.44Z" transform="translate(0.15 0.14)"/>
    <path class="cls-1" d="M8.53,36.92H3.79c0-.42,0-.83,0-1.23,0-1.35,0-2.7,0-4,0-.73.29-1,1-1H7.61c.56,0,.9.3.91.82C8.54,33.25,8.53,35.06,8.53,36.92Z" transform="translate(0.15 0.14)"/>
    <path class="cls-1" d="M25.91,36.9V34.57c1.08,0,2.15,0,3.21,0a.74.74,0,0,1,.71.8c0,.49,0,1,0,1.51Z" transform="translate(0.15 0.14)"/>
    <path class="cls-1" d="M22.67,23.85,21,22.14c.49-.25,1-.52,1.5-.75a.5.5,0,0,1,.4,0c.35.21.68.44,1.07.7Z" transform="translate(0.15 0.14)"/>
    <path class="cls-1" d="M26.27,22.17l.07-.09c1.22-.9,1.32-.9,2.81,0l-1.66,1.66Z" transform="translate(0.15 0.14)"/>
    <path class="cls-1" d="M23,29.79l.37-.28.08,0L27,32.95H26a7.21,7.21,0,0,0-.56-.74C24.67,31.42,23.88,30.65,23,29.79Z" transform="translate(0.15 0.14)"/>
    <path class="cls-1" d="M23.56,19.48h3.12c.05.85-.8,1-1.31,1.28-.68.45-1-.42-1.52-.63S23.48,19.9,23.56,19.48Z" transform="translate(0.15 0.14)"/>
    <path class="cls-1" d="M18.79,12.46c-1.13.06-1.61-.2-1.58-.81s.52-.82,1.58-.71v1.52Z" transform="translate(0.15 0.14)"/>
    <path class="cls-1" d="M31.43,12.47V10.91c.52,0,1.08-.18,1.4.37a1,1,0,0,1,0,.81C32.53,12.64,32,12.45,31.43,12.47Z" transform="translate(0.15 0.14)"/>
    <path d="M33,33H31.45V28.29H33Z" transform="translate(0.15 0.14)"/>
  </g>
</svg>

